<svg xmlns="http://www.w3.org/2000/svg" width="31.429" height="20" viewBox="0 0 31.429 20">
  <path id="Icon_material-people" data-name="Icon material-people" d="M22.929,16.071a4.286,4.286,0,1,0-4.286-4.286A4.268,4.268,0,0,0,22.929,16.071Zm-11.429,0a4.286,4.286,0,1,0-4.286-4.286A4.268,4.268,0,0,0,11.5,16.071Zm0,2.857c-3.329,0-10,1.671-10,5V27.5h20V23.929C21.5,20.6,14.829,18.929,11.5,18.929Zm11.429,0c-.414,0-.886.029-1.386.071a6.028,6.028,0,0,1,2.814,4.929V27.5h8.571V23.929C32.929,20.6,26.257,18.929,22.929,18.929Z" transform="translate(-1.5 -7.5)" fill="rgba(0,55,59,0.8)"/>
</svg>
