<svg xmlns="http://www.w3.org/2000/svg" width="182" height="48" viewBox="0 0 182 48">
  <g id="Group_1" data-name="Group 1" transform="translate(-1512 -104)">
    <g id="Path_1" data-name="Path 1" transform="translate(1512 104)" fill="rgba(255,255,255,0.3)">
      <path d="M 158 47.25 L 24 47.25 C 20.86093139648438 47.25 17.81618118286133 46.6353874206543 14.95027256011963 45.4232063293457 C 12.18177318572998 44.25222778320313 9.695249557495117 42.57572555541992 7.559772491455078 40.44022750854492 C 5.424272537231445 38.30474853515625 3.747772693634033 35.8182258605957 2.576795339584351 33.04972839355469 C 1.364613652229309 30.18381881713867 0.75 27.13906860351563 0.75 24 C 0.75 20.86093139648438 1.364613652229309 17.81618118286133 2.576795339584351 14.95027256011963 C 3.747772693634033 12.18177318572998 5.424272537231445 9.695249557495117 7.559772491455078 7.559772491455078 C 9.695249557495117 5.424272537231445 12.18177318572998 3.747772693634033 14.95027256011963 2.576795339584351 C 17.81618118286133 1.364613652229309 20.86093139648438 0.75 24 0.75 L 158 0.75 C 161.1390686035156 0.75 164.1838226318359 1.364613652229309 167.0497283935547 2.576795339584351 C 169.8182220458984 3.747772693634033 172.3047485351563 5.424272537231445 174.4402313232422 7.559772491455078 C 176.5757293701172 9.695249557495117 178.2522277832031 12.18177318572998 179.4232025146484 14.95027256011963 C 180.6353912353516 17.81618118286133 181.25 20.86093139648438 181.25 24 C 181.25 27.13906860351563 180.6353912353516 30.18381881713867 179.4232025146484 33.04972839355469 C 178.2522277832031 35.8182258605957 176.5757293701172 38.30474853515625 174.4402313232422 40.44022750854492 C 172.3047485351563 42.57572555541992 169.8182220458984 44.25222778320313 167.0497283935547 45.4232063293457 C 164.1838226318359 46.6353874206543 161.1390686035156 47.25 158 47.25 Z" stroke="none"/>
      <path d="M 24 1.5 C 20.96185302734375 1.5 18.015380859375 2.094692230224609 15.24244689941406 3.267547607421875 C 12.56333923339844 4.400714874267578 10.15695190429688 6.023262023925781 8.090087890625 8.090095520019531 C 6.02325439453125 10.15695190429688 4.400711059570313 12.56333160400391 3.267547607421875 15.24245071411133 C 2.094696044921875 18.015380859375 1.5 20.96185684204102 1.5 24 C 1.5 27.03814315795898 2.094696044921875 29.984619140625 3.267547607421875 32.75754547119141 C 4.400711059570313 35.43666839599609 6.02325439453125 37.84304809570313 8.090087890625 39.90990447998047 C 10.15695190429688 41.97673797607422 12.56333923339844 43.59928512573242 15.24244689941406 44.73245239257813 C 18.015380859375 45.90530776977539 20.96185302734375 46.5 24 46.5 L 158 46.5 C 161.0381469726563 46.5 163.984619140625 45.90530776977539 166.7575531005859 44.73245239257813 C 169.4366607666016 43.59928512573242 171.8430480957031 41.97673797607422 173.909912109375 39.90990447998047 C 175.9767456054688 37.84304809570313 177.5992889404297 35.43666839599609 178.7324523925781 32.75754547119141 C 179.9053039550781 29.984619140625 180.5 27.03814315795898 180.5 24 C 180.5 20.96185684204102 179.9053039550781 18.015380859375 178.7324523925781 15.24245071411133 C 177.5992889404297 12.56333160400391 175.9767456054688 10.15695190429688 173.909912109375 8.090095520019531 C 171.8430480957031 6.023262023925781 169.4366607666016 4.400714874267578 166.7575531005859 3.267547607421875 C 163.984619140625 2.094692230224609 161.0381469726563 1.5 158 1.5 L 24 1.5 M 24 0 L 158 0 C 171.2548370361328 0 182 10.74516677856445 182 24 C 182 37.25483322143555 171.2548370361328 48 158 48 L 24 48 C 10.74516296386719 48 0 37.25483322143555 0 24 C 0 10.74516677856445 10.74516296386719 0 24 0 Z" stroke="none" fill="#10a3ac"/>
    </g>
    <text id="_Label" data-name="â†³ âœï¸ Label" transform="translate(1573 133)" fill="#00373b" font-size="14" font-family="Roboto-Medium, Roboto" font-weight="500" letter-spacing="0.089em"><tspan x="0" y="0">SEARCH</tspan></text>
    <g id="_Trailing_icon_2" data-name="ðŸ“Trailing icon 2" transform="translate(1532 116)">
      <rect id="Boundary" width="24" height="24" fill="none"/>
      <path id="_Color" data-name=" â†³Color" d="M16.467,18h0l-5.146-5.134v-.813l-.278-.288a6.7,6.7,0,1,1,.721-.721l.288.278h.813L18,16.467,16.468,18ZM6.689,2.058a4.631,4.631,0,1,0,4.631,4.631A4.637,4.637,0,0,0,6.689,2.058Z" transform="translate(3 3)" fill="#00373b"/>
    </g>
  </g>
</svg>
